<svg width="20" height="20" viewBox="0 0 20 20" fill="none" xmlns="http://www.w3.org/2000/svg">
<g id="resize">
<path id="vector" d="M2.5 10.8333V9.16667H4.16667V10.8333H2.5ZM2.5 7.5V5.83333H4.16667V7.5H2.5ZM5.83333 4.16667V2.5H7.5V4.16667H5.83333ZM9.16667 17.5V15.8333H10.8333V17.5H9.16667ZM9.16667 4.16667V2.5H10.8333V4.16667H9.16667ZM12.5 17.5V15.8333H14.1667V17.5H12.5ZM15.8333 14.1667V12.5H17.5V14.1667H15.8333ZM15.8333 10.8333V9.16667H17.5V10.8333H15.8333ZM16.6667 7.5C16.4306 7.5 16.2326 7.42014 16.0729 7.26042C15.9132 7.10069 15.8333 6.90278 15.8333 6.66667V4.16667H13.3333C13.0972 4.16667 12.8993 4.08681 12.7396 3.92708C12.5799 3.76736 12.5 3.56944 12.5 3.33333C12.5 3.09722 12.5799 2.89931 12.7396 2.73958C12.8993 2.57986 13.0972 2.5 13.3333 2.5H15.8333C16.2917 2.5 16.684 2.66319 17.0104 2.98958C17.3368 3.31597 17.5 3.70833 17.5 4.16667V6.66667C17.5 6.90278 17.4201 7.10069 17.2604 7.26042C17.1007 7.42014 16.9028 7.5 16.6667 7.5ZM4.16667 17.5C3.70833 17.5 3.31597 17.3368 2.98958 17.0104C2.66319 16.684 2.5 16.2917 2.5 15.8333V13.3333C2.5 13.0972 2.57986 12.8993 2.73958 12.7396C2.89931 12.5799 3.09722 12.5 3.33333 12.5C3.56944 12.5 3.76736 12.5799 3.92708 12.7396C4.08681 12.8993 4.16667 13.0972 4.16667 13.3333V15.8333H6.66667C6.90278 15.8333 7.10069 15.9132 7.26042 16.0729C7.42014 16.2326 7.5 16.4306 7.5 16.6667C7.5 16.9028 7.42014 17.1007 7.26042 17.2604C7.10069 17.4201 6.90278 17.5 6.66667 17.5H4.16667ZM15.8333 17.5V15.8333H17.5C17.5 16.2917 17.3368 16.684 17.0104 17.0104C16.684 17.3368 16.2917 17.5 15.8333 17.5ZM2.5 4.16667C2.5 3.70833 2.66319 3.31597 2.98958 2.98958C3.31597 2.66319 3.70833 2.5 4.16667 2.5V4.16667H2.5Z" fill="#666666"/>
</g>
</svg>
